<mxfile host="Electron" modified="2023-06-07T08:45:09.654Z" agent="Mozilla/5.0 (X11; Linux x86_64) AppleWebKit/537.36 (KHTML, like Gecko) draw.io/21.2.8 Chrome/112.0.5615.165 Electron/24.2.0 Safari/537.36" etag="gbrEHJwFhN-GUDgM7cBx" version="21.2.8" type="device">
  <diagram name="Page-1" id="Az-qtJvGuADVU9tBE-jw">
    <mxGraphModel dx="1434" dy="1941" grid="1" gridSize="10" guides="1" tooltips="1" connect="1" arrows="1" fold="1" page="1" pageScale="1" pageWidth="850" pageHeight="1100" math="0" shadow="0">
      <root>
        <mxCell id="0" />
        <mxCell id="1" parent="0" />
        <mxCell id="8Ye3jsbRUgHiPySa8m6L-5" style="edgeStyle=orthogonalEdgeStyle;rounded=0;orthogonalLoop=1;jettySize=auto;html=1;exitX=0.75;exitY=1;exitDx=0;exitDy=0;entryX=0.75;entryY=0;entryDx=0;entryDy=0;" parent="1" source="8Ye3jsbRUgHiPySa8m6L-3" target="8Ye3jsbRUgHiPySa8m6L-4" edge="1">
          <mxGeometry relative="1" as="geometry" />
        </mxCell>
        <mxCell id="8Ye3jsbRUgHiPySa8m6L-3" value="&lt;font style=&quot;font-size: 24px;&quot;&gt;0. Inactive.&lt;/font&gt;" style="html=1;whiteSpace=wrap;" parent="1" vertex="1">
          <mxGeometry x="300" y="510" width="200" height="60" as="geometry" />
        </mxCell>
        <mxCell id="8Ye3jsbRUgHiPySa8m6L-6" style="edgeStyle=orthogonalEdgeStyle;rounded=0;orthogonalLoop=1;jettySize=auto;html=1;exitX=0.25;exitY=0;exitDx=0;exitDy=0;entryX=0.25;entryY=1;entryDx=0;entryDy=0;" parent="1" source="8Ye3jsbRUgHiPySa8m6L-4" target="8Ye3jsbRUgHiPySa8m6L-3" edge="1">
          <mxGeometry relative="1" as="geometry" />
        </mxCell>
        <mxCell id="8Ye3jsbRUgHiPySa8m6L-4" value="&lt;font style=&quot;font-size: 24px;&quot;&gt;1. Active.&lt;/font&gt;" style="html=1;whiteSpace=wrap;" parent="1" vertex="1">
          <mxGeometry x="300" y="680" width="200" height="60" as="geometry" />
        </mxCell>
        <mxCell id="8Ye3jsbRUgHiPySa8m6L-7" value="&lt;font style=&quot;font-size: 14px;&quot;&gt;&lt;b&gt;call&lt;/b&gt;&lt;/font&gt;" style="text;html=1;align=center;verticalAlign=middle;resizable=0;points=[];autosize=1;strokeColor=none;fillColor=none;" parent="1" vertex="1">
          <mxGeometry x="445" y="610" width="50" height="30" as="geometry" />
        </mxCell>
        <mxCell id="8Ye3jsbRUgHiPySa8m6L-8" value="&lt;font style=&quot;font-size: 14px;&quot;&gt;&lt;b&gt;arrived&lt;br&gt;&lt;/b&gt;&lt;/font&gt;" style="text;html=1;align=center;verticalAlign=middle;resizable=0;points=[];autosize=1;strokeColor=none;fillColor=none;" parent="1" vertex="1">
          <mxGeometry x="280" y="610" width="70" height="30" as="geometry" />
        </mxCell>
        <mxCell id="8Ye3jsbRUgHiPySa8m6L-15" style="edgeStyle=orthogonalEdgeStyle;rounded=0;orthogonalLoop=1;jettySize=auto;html=1;exitX=1;exitY=0.5;exitDx=0;exitDy=0;entryX=0;entryY=0.5;entryDx=0;entryDy=0;" parent="1" source="8Ye3jsbRUgHiPySa8m6L-9" target="8Ye3jsbRUgHiPySa8m6L-10" edge="1">
          <mxGeometry relative="1" as="geometry" />
        </mxCell>
        <mxCell id="8Ye3jsbRUgHiPySa8m6L-9" value="&lt;font style=&quot;font-size: 24px;&quot;&gt;0. Closed.&lt;/font&gt;" style="html=1;whiteSpace=wrap;" parent="1" vertex="1">
          <mxGeometry x="120" y="180" width="200" height="60" as="geometry" />
        </mxCell>
        <mxCell id="8Ye3jsbRUgHiPySa8m6L-16" style="edgeStyle=orthogonalEdgeStyle;rounded=0;orthogonalLoop=1;jettySize=auto;html=1;exitX=0.5;exitY=1;exitDx=0;exitDy=0;entryX=0.5;entryY=0;entryDx=0;entryDy=0;" parent="1" source="8Ye3jsbRUgHiPySa8m6L-10" target="8Ye3jsbRUgHiPySa8m6L-12" edge="1">
          <mxGeometry relative="1" as="geometry" />
        </mxCell>
        <mxCell id="8Ye3jsbRUgHiPySa8m6L-10" value="&lt;font style=&quot;font-size: 24px;&quot;&gt;1. Opening.&lt;/font&gt;" style="html=1;whiteSpace=wrap;" parent="1" vertex="1">
          <mxGeometry x="425" y="180" width="200" height="60" as="geometry" />
        </mxCell>
        <mxCell id="8Ye3jsbRUgHiPySa8m6L-18" style="edgeStyle=orthogonalEdgeStyle;rounded=0;orthogonalLoop=1;jettySize=auto;html=1;exitX=0.5;exitY=0;exitDx=0;exitDy=0;entryX=0.5;entryY=1;entryDx=0;entryDy=0;" parent="1" source="8Ye3jsbRUgHiPySa8m6L-11" target="8Ye3jsbRUgHiPySa8m6L-9" edge="1">
          <mxGeometry relative="1" as="geometry" />
        </mxCell>
        <mxCell id="8Ye3jsbRUgHiPySa8m6L-19" style="edgeStyle=orthogonalEdgeStyle;rounded=0;orthogonalLoop=1;jettySize=auto;html=1;exitX=1;exitY=0;exitDx=0;exitDy=0;entryX=0;entryY=1;entryDx=0;entryDy=0;" parent="1" source="8Ye3jsbRUgHiPySa8m6L-11" target="8Ye3jsbRUgHiPySa8m6L-10" edge="1">
          <mxGeometry relative="1" as="geometry" />
        </mxCell>
        <mxCell id="8Ye3jsbRUgHiPySa8m6L-11" value="&lt;font style=&quot;font-size: 24px;&quot;&gt;3. Closing.&lt;/font&gt;" style="html=1;whiteSpace=wrap;" parent="1" vertex="1">
          <mxGeometry x="120" y="320" width="200" height="60" as="geometry" />
        </mxCell>
        <mxCell id="8Ye3jsbRUgHiPySa8m6L-17" style="edgeStyle=orthogonalEdgeStyle;rounded=0;orthogonalLoop=1;jettySize=auto;html=1;exitX=0;exitY=0.5;exitDx=0;exitDy=0;entryX=1;entryY=0.5;entryDx=0;entryDy=0;" parent="1" source="8Ye3jsbRUgHiPySa8m6L-12" target="8Ye3jsbRUgHiPySa8m6L-11" edge="1">
          <mxGeometry relative="1" as="geometry" />
        </mxCell>
        <mxCell id="8Ye3jsbRUgHiPySa8m6L-12" value="&lt;font style=&quot;font-size: 24px;&quot;&gt;2. Opened.&lt;/font&gt;" style="html=1;whiteSpace=wrap;" parent="1" vertex="1">
          <mxGeometry x="425" y="320" width="200" height="60" as="geometry" />
        </mxCell>
        <mxCell id="8Ye3jsbRUgHiPySa8m6L-20" value="&lt;font style=&quot;font-size: 14px;&quot;&gt;&lt;b&gt;arrived&lt;br&gt;&lt;/b&gt;&lt;/font&gt;" style="text;html=1;align=center;verticalAlign=middle;resizable=0;points=[];autosize=1;strokeColor=none;fillColor=none;" parent="1" vertex="1">
          <mxGeometry x="340" y="180" width="70" height="30" as="geometry" />
        </mxCell>
        <mxCell id="8Ye3jsbRUgHiPySa8m6L-21" value="&lt;font style=&quot;font-size: 14px;&quot;&gt;&lt;b&gt;arrived&lt;br&gt;&lt;/b&gt;&lt;/font&gt;" style="text;html=1;align=center;verticalAlign=middle;resizable=0;points=[];autosize=1;strokeColor=none;fillColor=none;" parent="1" vertex="1">
          <mxGeometry x="340" y="250" width="70" height="30" as="geometry" />
        </mxCell>
        <mxCell id="8Ye3jsbRUgHiPySa8m6L-22" value="&lt;font style=&quot;font-size: 14px;&quot;&gt;&lt;b&gt;opened&lt;br&gt;&lt;/b&gt;&lt;/font&gt;" style="text;html=1;align=center;verticalAlign=middle;resizable=0;points=[];autosize=1;strokeColor=none;fillColor=none;" parent="1" vertex="1">
          <mxGeometry x="530" y="270" width="70" height="30" as="geometry" />
        </mxCell>
        <mxCell id="8Ye3jsbRUgHiPySa8m6L-23" value="&lt;font style=&quot;font-size: 14px;&quot;&gt;&lt;b&gt;timeIsUp&lt;br&gt;&lt;/b&gt;&lt;/font&gt;" style="text;html=1;align=center;verticalAlign=middle;resizable=0;points=[];autosize=1;strokeColor=none;fillColor=none;" parent="1" vertex="1">
          <mxGeometry x="335" y="360" width="80" height="30" as="geometry" />
        </mxCell>
        <mxCell id="8Ye3jsbRUgHiPySa8m6L-24" value="&lt;font style=&quot;font-size: 14px;&quot;&gt;&lt;b&gt;closed&lt;br&gt;&lt;/b&gt;&lt;/font&gt;" style="text;html=1;align=center;verticalAlign=middle;resizable=0;points=[];autosize=1;strokeColor=none;fillColor=none;" parent="1" vertex="1">
          <mxGeometry x="150" y="270" width="70" height="30" as="geometry" />
        </mxCell>
        <mxCell id="8Ye3jsbRUgHiPySa8m6L-38" style="edgeStyle=orthogonalEdgeStyle;rounded=0;orthogonalLoop=1;jettySize=auto;html=1;exitX=1;exitY=0.5;exitDx=0;exitDy=0;entryX=0;entryY=0.5;entryDx=0;entryDy=0;" parent="1" source="8Ye3jsbRUgHiPySa8m6L-25" target="8Ye3jsbRUgHiPySa8m6L-26" edge="1">
          <mxGeometry relative="1" as="geometry" />
        </mxCell>
        <mxCell id="8Ye3jsbRUgHiPySa8m6L-25" value="&lt;font style=&quot;font-size: 24px;&quot;&gt;0. Waiting.&lt;/font&gt;" style="html=1;whiteSpace=wrap;" parent="1" vertex="1">
          <mxGeometry x="120" y="-260" width="200" height="60" as="geometry" />
        </mxCell>
        <mxCell id="8Ye3jsbRUgHiPySa8m6L-28" style="edgeStyle=orthogonalEdgeStyle;rounded=0;orthogonalLoop=1;jettySize=auto;html=1;exitX=0.5;exitY=1;exitDx=0;exitDy=0;entryX=1;entryY=0.5;entryDx=0;entryDy=0;" parent="1" source="8Ye3jsbRUgHiPySa8m6L-26" target="8Ye3jsbRUgHiPySa8m6L-27" edge="1">
          <mxGeometry relative="1" as="geometry" />
        </mxCell>
        <mxCell id="8Ye3jsbRUgHiPySa8m6L-26" value="&lt;font style=&quot;font-size: 24px;&quot;&gt;1. Moving.&lt;/font&gt;" style="html=1;whiteSpace=wrap;" parent="1" vertex="1">
          <mxGeometry x="460" y="-260" width="200" height="60" as="geometry" />
        </mxCell>
        <mxCell id="8Ye3jsbRUgHiPySa8m6L-30" style="edgeStyle=orthogonalEdgeStyle;rounded=0;orthogonalLoop=1;jettySize=auto;html=1;exitX=0;exitY=0.5;exitDx=0;exitDy=0;entryX=0.5;entryY=1;entryDx=0;entryDy=0;" parent="1" source="8Ye3jsbRUgHiPySa8m6L-27" target="8Ye3jsbRUgHiPySa8m6L-25" edge="1">
          <mxGeometry relative="1" as="geometry" />
        </mxCell>
        <mxCell id="8Ye3jsbRUgHiPySa8m6L-27" value="&lt;font style=&quot;font-size: 24px;&quot;&gt;2. Staying.&lt;/font&gt;" style="html=1;whiteSpace=wrap;" parent="1" vertex="1">
          <mxGeometry x="280" y="-100" width="200" height="60" as="geometry" />
        </mxCell>
        <mxCell id="8Ye3jsbRUgHiPySa8m6L-33" value="&lt;font style=&quot;font-size: 14px;&quot;&gt;&lt;b&gt;call&lt;/b&gt;&lt;/font&gt;" style="text;html=1;align=center;verticalAlign=middle;resizable=0;points=[];autosize=1;strokeColor=none;fillColor=none;" parent="1" vertex="1">
          <mxGeometry x="365" y="-260" width="50" height="30" as="geometry" />
        </mxCell>
        <mxCell id="8Ye3jsbRUgHiPySa8m6L-36" value="&lt;font style=&quot;font-size: 14px;&quot;&gt;&lt;b&gt;arrived&lt;br&gt;&lt;/b&gt;&lt;/font&gt;" style="text;html=1;align=center;verticalAlign=middle;resizable=0;points=[];autosize=1;strokeColor=none;fillColor=none;" parent="1" vertex="1">
          <mxGeometry x="555" y="-150" width="70" height="30" as="geometry" />
        </mxCell>
        <mxCell id="8Ye3jsbRUgHiPySa8m6L-37" value="&lt;font style=&quot;font-size: 14px;&quot;&gt;&lt;b&gt;closed&lt;br&gt;&lt;/b&gt;&lt;/font&gt;" style="text;html=1;align=center;verticalAlign=middle;resizable=0;points=[];autosize=1;strokeColor=none;fillColor=none;" parent="1" vertex="1">
          <mxGeometry x="160" y="-150" width="70" height="30" as="geometry" />
        </mxCell>
        <mxCell id="edSjdO5I7AFKpr66lAef-3" style="edgeStyle=orthogonalEdgeStyle;rounded=0;orthogonalLoop=1;jettySize=auto;html=1;exitX=1;exitY=0.5;exitDx=0;exitDy=0;entryX=0;entryY=0.5;entryDx=0;entryDy=0;" parent="1" source="8Ye3jsbRUgHiPySa8m6L-40" target="8Ye3jsbRUgHiPySa8m6L-42" edge="1">
          <mxGeometry relative="1" as="geometry" />
        </mxCell>
        <mxCell id="8Ye3jsbRUgHiPySa8m6L-40" value="&lt;font style=&quot;font-size: 24px;&quot;&gt;0. Free.&lt;/font&gt;" style="html=1;whiteSpace=wrap;" parent="1" vertex="1">
          <mxGeometry x="140" y="-700" width="200" height="60" as="geometry" />
        </mxCell>
        <mxCell id="edSjdO5I7AFKpr66lAef-5" style="edgeStyle=orthogonalEdgeStyle;rounded=0;orthogonalLoop=1;jettySize=auto;html=1;exitX=0.25;exitY=1;exitDx=0;exitDy=0;entryX=0.25;entryY=0;entryDx=0;entryDy=0;" parent="1" source="8Ye3jsbRUgHiPySa8m6L-42" target="edSjdO5I7AFKpr66lAef-1" edge="1">
          <mxGeometry relative="1" as="geometry" />
        </mxCell>
        <mxCell id="8Ye3jsbRUgHiPySa8m6L-42" value="&lt;font style=&quot;font-size: 24px;&quot;&gt;1. Busy.&lt;/font&gt;" style="html=1;whiteSpace=wrap;" parent="1" vertex="1">
          <mxGeometry x="470" y="-700" width="200" height="60" as="geometry" />
        </mxCell>
        <mxCell id="8Ye3jsbRUgHiPySa8m6L-43" value="&lt;font style=&quot;font-size: 14px;&quot;&gt;&lt;b&gt;call&lt;/b&gt;&lt;/font&gt;" style="text;html=1;align=center;verticalAlign=middle;resizable=0;points=[];autosize=1;strokeColor=none;fillColor=none;" parent="1" vertex="1">
          <mxGeometry x="375" y="-720" width="50" height="30" as="geometry" />
        </mxCell>
        <mxCell id="8Ye3jsbRUgHiPySa8m6L-44" value="&lt;font style=&quot;font-size: 14px;&quot;&gt;&lt;b&gt;needTarget&lt;br&gt;&lt;/b&gt;&lt;/font&gt;" style="text;html=1;align=center;verticalAlign=middle;resizable=0;points=[];autosize=1;strokeColor=none;fillColor=none;" parent="1" vertex="1">
          <mxGeometry x="145" y="-590" width="100" height="30" as="geometry" />
        </mxCell>
        <mxCell id="edSjdO5I7AFKpr66lAef-7" style="edgeStyle=orthogonalEdgeStyle;rounded=0;orthogonalLoop=1;jettySize=auto;html=1;exitX=0;exitY=0.5;exitDx=0;exitDy=0;entryX=1;entryY=0.5;entryDx=0;entryDy=0;" parent="1" source="edSjdO5I7AFKpr66lAef-1" target="edSjdO5I7AFKpr66lAef-2" edge="1">
          <mxGeometry relative="1" as="geometry" />
        </mxCell>
        <mxCell id="esiL0bMDBtEex4bhIHxa-1" style="edgeStyle=orthogonalEdgeStyle;rounded=0;orthogonalLoop=1;jettySize=auto;html=1;exitX=0.75;exitY=0;exitDx=0;exitDy=0;entryX=0.75;entryY=1;entryDx=0;entryDy=0;" parent="1" source="edSjdO5I7AFKpr66lAef-1" target="8Ye3jsbRUgHiPySa8m6L-42" edge="1">
          <mxGeometry relative="1" as="geometry" />
        </mxCell>
        <mxCell id="edSjdO5I7AFKpr66lAef-1" value="&lt;font style=&quot;font-size: 24px;&quot;&gt;2. Solving.&lt;/font&gt;" style="html=1;whiteSpace=wrap;" parent="1" vertex="1">
          <mxGeometry x="470" y="-510" width="200" height="60" as="geometry" />
        </mxCell>
        <mxCell id="edSjdO5I7AFKpr66lAef-8" style="edgeStyle=orthogonalEdgeStyle;rounded=0;orthogonalLoop=1;jettySize=auto;html=1;exitX=0.5;exitY=0;exitDx=0;exitDy=0;entryX=0.5;entryY=1;entryDx=0;entryDy=0;" parent="1" source="edSjdO5I7AFKpr66lAef-2" target="8Ye3jsbRUgHiPySa8m6L-40" edge="1">
          <mxGeometry relative="1" as="geometry" />
        </mxCell>
        <mxCell id="edSjdO5I7AFKpr66lAef-2" value="&lt;font style=&quot;font-size: 24px;&quot;&gt;3. Waiting.&lt;/font&gt;" style="html=1;whiteSpace=wrap;" parent="1" vertex="1">
          <mxGeometry x="140" y="-510" width="200" height="60" as="geometry" />
        </mxCell>
        <mxCell id="edSjdO5I7AFKpr66lAef-9" value="&lt;font style=&quot;font-size: 14px;&quot;&gt;&lt;b&gt;arrived&lt;br&gt;&lt;/b&gt;&lt;/font&gt;" style="text;html=1;align=center;verticalAlign=middle;resizable=0;points=[];autosize=1;strokeColor=none;fillColor=none;" parent="1" vertex="1">
          <mxGeometry x="375" y="-520" width="70" height="30" as="geometry" />
        </mxCell>
        <mxCell id="edSjdO5I7AFKpr66lAef-10" value="&lt;font style=&quot;font-size: 14px;&quot;&gt;&lt;b&gt;floorChanged&lt;br&gt;&lt;/b&gt;&lt;/font&gt;" style="text;html=1;align=center;verticalAlign=middle;resizable=0;points=[];autosize=1;strokeColor=none;fillColor=none;" parent="1" vertex="1">
          <mxGeometry x="410" y="-570" width="110" height="30" as="geometry" />
        </mxCell>
        <mxCell id="esiL0bMDBtEex4bhIHxa-2" value="&lt;font style=&quot;font-size: 14px;&quot;&gt;&lt;b&gt;continueMoving&lt;br&gt;&lt;/b&gt;&lt;/font&gt;" style="text;html=1;align=center;verticalAlign=middle;resizable=0;points=[];autosize=1;strokeColor=none;fillColor=none;" parent="1" vertex="1">
          <mxGeometry x="615" y="-590" width="130" height="30" as="geometry" />
        </mxCell>
      </root>
    </mxGraphModel>
  </diagram>
</mxfile>
